<svg fill="none" xmlns="http://www.w3.org/2000/svg" viewBox="0 0 97 97">
  <rect x="4.8" y="2.2" width="61.9" height="93.7" rx="30.9" fill="#F3D2C1" stroke="#001858"/>
  <path d="M96 25a23.9 23.9 0 01-23.2 24.4C60 49.4 49.6 38.5 49.6 25A23.9 23.9 0 0172.8.5c12.7 0 23.1 11 23.1 24.5z" fill="#fff" stroke="#000"/>
  <ellipse cx="77.5" cy="25" rx="1.6" ry="10" fill="#172C66"/>
  <path d="M58 25A23.9 23.9 0 0135 49.4C22 49.4 11.7 38.5 11.7 25A23.9 23.9 0 0134.9.5C47.6.5 58 11.5 58 25z" fill="#fff" stroke="#000"/>
  <path d="M40.7 25a47.2 47.2 0 01-1 9.3l-.2-.3-.5-2a47.2 47.2 0 01.6-16.4l.2.3.4 2c.3 1.9.5 4.3.5 7zm-1.2 9.5s0 0 0 0 0 0 0 0zm.2 0s0 0 0 0 0 0 0 0zm0-19s0 0 0 0 0 0 0 0zm-.2 0s0 0 0 0 0 0 0 0z" fill="#172C66" stroke="#000"/>
  <path d="M63.7 60.3C63.7 75 52.7 87 39.2 87c-13.6 0-24.6-12-24.6-26.7s11-10.7 24.6-10.7c13.5 0 24.5-4 24.5 10.7z" fill="#CE0000"/>
  <path fill-rule="evenodd" clip-rule="evenodd" d="M14.7 60.8c3.5-1.5 7.4-2.4 11.6-2.4 13.9 0 25.1 9.6 25.1 21.4 0 1.5-.2 3-.5 4.5a25 25 0 01-11.4 2.8 24.6 24.6 0 01-24.8-26.3z" fill="#FF7D7D"/>
  <circle cx="5.6" cy="42.6" r="5.1" fill="#F3D2C1" stroke="#000"/>
  <path d="M6.5 41.3l-4 1.8 4 3" stroke="#000" stroke-linecap="round" stroke-linejoin="round"/>
  <ellipse cx="11.6" cy="45.6" rx="3.9" ry="4.3" fill="#F3D2C1"/>
</svg>
