<svg fill="none" xmlns="http://www.w3.org/2000/svg" viewBox="0 0 41 27"><rect y="4" width="41" height="19" rx="5" fill="#001858"/><path d="M1.9 21L4.5 6h3.8l3 8 3-8h4l2.5 15h-3.9l-1.3-8.7L12 21h-1.5L7 12.3 5.8 21H1.9zm24-7.5a4 4 0 001.3 3l1.3.8a4.5 4.5 0 003.3 0 4.3 4.3 0 002.3-2.2c.2-.5.3-1 .3-1.6a4 4 0 00-1.3-3 4 4 0 00-1.3-.9c-.5-.2-1-.3-1.7-.3a4.3 4.3 0 00-3.9 2.5 4 4 0 00-.3 1.7zm-4.1 0a7.8 7.8 0 015-7.4 9 9 0 013.3-.6 9 9 0 013.4.6 7.7 7.7 0 015 7.4 8 8 0 01-2.4 5.6 8 8 0 01-2.6 1.7c-1 .4-2.1.6-3.4.6a8 8 0 01-7.7-4.8 8 8 0 01-.6-3.1z" fill="#FEF6E4"/></svg>