
<svg style="background:#001858; border-radius:5px;" aria-hidden="true"
  focusable="false" fill="none" xmlns="http://www.w3.org/2000/svg" viewBox="-1 2 64 14"><path d="M.9 16L3.5 1h3.8l3 8 3-8h4l2.5 15h-3.9l-1.3-8.7L11 16H9.5L6 7.3 4.8 16H.9zm28.8-5.6l-1.8-5-1.7 5h3.5zm1 3h-5.6l-.9 2.6H20l5.8-15H30l5.7 15h-4.2l-.9-2.6zm10-5.7h.7c.8 0 1.3-.2 1.8-.5.4-.3.6-.8.6-1.4 0-.6-.2-1-.6-1.4-.5-.3-1-.5-1.8-.5h-.8v3.8zm8.6 8.3h-5l-3.7-5.8V16h-3.9V1h6.1c.9 0 1.6 0 2.2.3a4 4 0 012.5 2.5c.2.5.3 1.1.3 1.8 0 1.1-.3 2-.8 2.8-.6.7-1.4 1.2-2.5 1.4l4.8 6.2zM60.7 6c-1-1.1-2-1.7-3.4-1.7a4 4 0 00-3 1.2 4 4 0 00-1 3c0 .5 0 1 .2 1.6.3.5.5 1 .9 1.3a4.2 4.2 0 002.9 1.2c1.3 0 2.4-.5 3.4-1.6v4.7l-.4.1a10.7 10.7 0 01-3.2.6 8 8 0 01-5.6-2.2 7.8 7.8 0 01-2.4-5.8 7.7 7.7 0 015-7.3 7.8 7.8 0 014.7-.4l1.9.6V6z" fill="#FEF6E4"/></svg>
